<svg xmlns="http://www.w3.org/2000/svg" height="48" viewBox="0 96 960 960" width="48"><path d="M476 997q-90.1 0-166.05-33.5Q234 930 178 874q-56-56-87.5-133T59 576.011q0-88.989 31.526-165.943 31.527-76.954 88.662-133.485 57.135-56.53 134.423-89.557Q390.9 154 480 154q52 0 104.5 14T685 210q18 8 22.5 27.5t-5.405 36.87Q692 287 675 292.5q-17 5.5-33-.5-40-22-79.972-34-39.973-12-82.028-12-141.337 0-235.669 94.262Q150 434.523 150 575.762 150 717 244.331 811 338.663 905 480 905q32.58 0 63.343-7 30.762-7 60.657-19 23-6 40 0t25 22q9 16 2.5 35t-23.324 23.579Q608 978 564.5 987.5T476 997Zm-88-259L276 625q-13-11-13-29.5t14-33q13-11.5 32.1-12T341 563l78 80 388-389q12.75-12 31.375-12.5t32.125 13Q884 269 884 286.956q0 17.955-13 32.044L451 738q-13 14-32.5 14T388 738Zm412 163q-18.625 0-31.812-13.188Q755 874.625 755 856v-75h-75q-18.625 0-31.812-13.182Q635 754.635 635 736.018q0-18.618 13.188-32.318Q661.375 690 680 690h75v-74q0-19.05 13.182-32.525Q781.365 570 799.982 570q18.618 0 32.318 13.475T846 616v74h74q19.05 0 32.525 13.475Q966 716.95 966 736q0 18.625-13.475 31.812Q939.05 781 920 781h-74v75q0 18.625-13.475 31.812Q819.05 901 800 901Z"/></svg>